solid JSxCAD
facet normal -1 0 0
outer loop
vertex -14.5 29 0
vertex -14.5 -29 1
vertex -14.5 29 1
endloop
endfacet
facet normal -1 0 0
outer loop
vertex -14.5 -29 1
vertex -14.5 29 0
vertex -14.5 -29 0
endloop
endfacet
facet normal 0 1 0
outer loop
vertex 9 29 0
vertex 14.5 29 1
vertex 14.5 29 0
endloop
endfacet
facet normal 0 1 0
outer loop
vertex -9 29 0
vertex 14.5 29 1
vertex 9 29 0
endloop
endfacet
facet normal 0 1 0
outer loop
vertex -14.5 29 0
vertex 14.5 29 1
vertex -9 29 0
endloop
endfacet
facet normal 0 1 0
outer loop
vertex 14.5 29 1
vertex -14.5 29 0
vertex -14.5 29 1
endloop
endfacet
facet normal 1 0 0
outer loop
vertex 14.5 -29 0
vertex 14.5 29 1
vertex 14.5 -29 1
endloop
endfacet
facet normal 1 0 0
outer loop
vertex 14.5 29 1
vertex 14.5 -29 0
vertex 14.5 29 0
endloop
endfacet
facet normal 0 -1 0
outer loop
vertex -14.5 -29 1
vertex 14.5 -29 0
vertex 14.5 -29 1
endloop
endfacet
facet normal 0 -1 0
outer loop
vertex 14.5 -29 0
vertex -14.5 -29 1
vertex -14.5 -29 0
endloop
endfacet
facet normal 0 0 0.9999999999999999
outer loop
vertex -14.5 29 1
vertex 14.5 -29 1
vertex 14.5 29 1
endloop
endfacet
facet normal 0 0 0.9999999999999999
outer loop
vertex 14.5 -29 1
vertex -14.5 29 1
vertex -14.5 -29 1
endloop
endfacet
facet normal 0 0 -1
outer loop
vertex 14.5 -29 0
vertex 9 29 0
vertex 14.5 29 0
endloop
endfacet
facet normal 0 0 -1
outer loop
vertex 14.5 -29 0
vertex -9 29 0
vertex 9 29 0
endloop
endfacet
facet normal 0 0 -1
outer loop
vertex 14.5 -29 0
vertex -14.5 29 0
vertex -9 29 0
endloop
endfacet
facet normal 0 0 -0.9999999999999999
outer loop
vertex -14.5 29 0
vertex 14.5 -29 0
vertex -14.5 -29 0
endloop
endfacet
facet normal -1 0 0
outer loop
vertex -9 29 -1
vertex -9 9 0
vertex -9 29 0
endloop
endfacet
facet normal -1 0 0
outer loop
vertex -9 9 0
vertex -9 29 -1
vertex -9 9 -1
endloop
endfacet
facet normal 0 1 0
outer loop
vertex -9 29 -1
vertex 9 29 0
vertex 9 29 -1
endloop
endfacet
facet normal 0 1 0
outer loop
vertex 9 29 0
vertex -9 29 -1
vertex -9 29 0
endloop
endfacet
facet normal 1 0 0
outer loop
vertex 9 9 -1
vertex 9 29 0
vertex 9 9 0
endloop
endfacet
facet normal 1 0 0
outer loop
vertex 9 29 0
vertex 9 9 -1
vertex 9 29 -1
endloop
endfacet
facet normal 0 -1 0
outer loop
vertex -9 9 0
vertex 9 9 -1
vertex 9 9 0
endloop
endfacet
facet normal 0 -1 0
outer loop
vertex 9 9 -1
vertex -9 9 0
vertex -9 9 -1
endloop
endfacet
facet normal 0 0 1
outer loop
vertex -9 29 0
vertex 9 9 0
vertex 9 29 0
endloop
endfacet
facet normal 0 0 1
outer loop
vertex 9 9 0
vertex -9 29 0
vertex -9 9 0
endloop
endfacet
facet normal 0 0 -1
outer loop
vertex 9 9 -1
vertex -9 29 -1
vertex 9 29 -1
endloop
endfacet
facet normal 0 0 -1
outer loop
vertex -9 29 -1
vertex 9 9 -1
vertex -9 9 -1
endloop
endfacet
facet normal -1 0 0
outer loop
vertex -9 -29.75 -2.5
vertex -9 -24.25 0
vertex -9 -24.25 -2.5
endloop
endfacet
facet normal -1 0 0
outer loop
vertex -9 -24.25 0
vertex -9 -29.75 -2.5
vertex -9 -29.75 0
endloop
endfacet
facet normal 0 1 0
outer loop
vertex -9 -24.25 -2.5
vertex -1 -24.25 0
vertex -1 -24.25 -2.5
endloop
endfacet
facet normal 0 1 0
outer loop
vertex -1 -24.25 0
vertex -9 -24.25 -2.5
vertex -9 -24.25 0
endloop
endfacet
facet normal 1 0 0
outer loop
vertex -1 -29.75 -2.5
vertex -1 -24.25 0
vertex -1 -29.75 0
endloop
endfacet
facet normal 1 0 0
outer loop
vertex -1 -24.25 0
vertex -1 -29.75 -2.5
vertex -1 -24.25 -2.5
endloop
endfacet
facet normal 0 -1 0
outer loop
vertex -9 -29.75 0
vertex -1 -29.75 -2.5
vertex -1 -29.75 0
endloop
endfacet
facet normal 0 -1 0
outer loop
vertex -1 -29.75 -2.5
vertex -9 -29.75 0
vertex -9 -29.75 -2.5
endloop
endfacet
facet normal 0 0 1
outer loop
vertex -9 -24.25 0
vertex -1 -29.75 0
vertex -1 -24.25 0
endloop
endfacet
facet normal 0 0 1
outer loop
vertex -1 -29.75 0
vertex -9 -24.25 0
vertex -9 -29.75 0
endloop
endfacet
facet normal 0 0 -1
outer loop
vertex -9 -29.75 -2.5
vertex -1 -24.25 -2.5
vertex -1 -29.75 -2.5
endloop
endfacet
facet normal 0 0 -1
outer loop
vertex -1 -24.25 -2.5
vertex -9 -29.75 -2.5
vertex -9 -24.25 -2.5
endloop
endfacet
facet normal -1 0 0
outer loop
vertex -14.2 -22.86 1
vertex -14.2 22.86 3.5
vertex -14.2 22.86 1
endloop
endfacet
facet normal -1 0 0
outer loop
vertex -14.2 22.86 3.5
vertex -14.2 -22.86 1
vertex -14.2 -22.86 3.5
endloop
endfacet
facet normal 0 1 0
outer loop
vertex -14.2 22.86 1
vertex -11.2 22.86 3.5
vertex -11.2 22.86 1
endloop
endfacet
facet normal 0 1 0
outer loop
vertex -11.2 22.86 3.5
vertex -14.2 22.86 1
vertex -14.2 22.86 3.5
endloop
endfacet
facet normal 1 0 0
outer loop
vertex -11.2 -22.86 3.5
vertex -11.2 22.86 1
vertex -11.2 22.86 3.5
endloop
endfacet
facet normal 1 0 0
outer loop
vertex -11.2 22.86 1
vertex -11.2 -22.86 3.5
vertex -11.2 -22.86 1
endloop
endfacet
facet normal 0 -1 0
outer loop
vertex -14.2 -22.86 3.5
vertex -11.2 -22.86 1
vertex -11.2 -22.86 3.5
endloop
endfacet
facet normal 0 -1 0
outer loop
vertex -11.2 -22.86 1
vertex -14.2 -22.86 3.5
vertex -14.2 -22.86 1
endloop
endfacet
facet normal 0 0 1
outer loop
vertex -14.2 22.86 3.5
vertex -11.2 -22.86 3.5
vertex -11.2 22.86 3.5
endloop
endfacet
facet normal 0 0 1
outer loop
vertex -11.2 -22.86 3.5
vertex -14.2 22.86 3.5
vertex -14.2 -22.86 3.5
endloop
endfacet
facet normal 0 0 -1
outer loop
vertex -14.2 -22.86 1
vertex -11.2 22.86 1
vertex -11.2 -22.86 1
endloop
endfacet
facet normal 0 0 -1
outer loop
vertex -11.2 22.86 1
vertex -14.2 -22.86 1
vertex -14.2 22.86 1
endloop
endfacet
facet normal -1 0 0
outer loop
vertex 11.2 -22.86 1
vertex 11.2 22.86 3.5
vertex 11.2 22.86 1
endloop
endfacet
facet normal -1 0 0
outer loop
vertex 11.2 22.86 3.5
vertex 11.2 -22.86 1
vertex 11.2 -22.86 3.5
endloop
endfacet
facet normal 0 1 0
outer loop
vertex 11.2 22.86 1
vertex 14.2 22.86 3.5
vertex 14.2 22.86 1
endloop
endfacet
facet normal 0 1 0
outer loop
vertex 14.2 22.86 3.5
vertex 11.2 22.86 1
vertex 11.2 22.86 3.5
endloop
endfacet
facet normal 1 0 0
outer loop
vertex 14.2 -22.86 3.5
vertex 14.2 22.86 1
vertex 14.2 22.86 3.5
endloop
endfacet
facet normal 1 0 0
outer loop
vertex 14.2 22.86 1
vertex 14.2 -22.86 3.5
vertex 14.2 -22.86 1
endloop
endfacet
facet normal 0 -1 0
outer loop
vertex 11.2 -22.86 3.5
vertex 14.2 -22.86 1
vertex 14.2 -22.86 3.5
endloop
endfacet
facet normal 0 -1 0
outer loop
vertex 14.2 -22.86 1
vertex 11.2 -22.86 3.5
vertex 11.2 -22.86 1
endloop
endfacet
facet normal 0 0 1
outer loop
vertex 11.2 22.86 3.5
vertex 14.2 -22.86 3.5
vertex 14.2 22.86 3.5
endloop
endfacet
facet normal 0 0 1
outer loop
vertex 14.2 -22.86 3.5
vertex 11.2 22.86 3.5
vertex 11.2 -22.86 3.5
endloop
endfacet
facet normal 0 0 -1
outer loop
vertex 11.2 -22.86 1
vertex 14.2 22.86 1
vertex 14.2 -22.86 1
endloop
endfacet
facet normal 0 0 -1
outer loop
vertex 14.2 22.86 1
vertex 11.2 -22.86 1
vertex 11.2 22.86 1
endloop
endfacet
endsolid JSxCAD
